<?xml version="1.0" standalone="no"?><svg xmlns="http://www.w3.org/2000/svg" viewBox="0 0 1440 320"><path fill="#80c5e8" fill-opacity="1" d="M0,32L24,64C48,96,96,160,144,170.7C192,181,240,139,288,106.7C336,75,384,53,432,42.7C480,32,528,32,576,58.7C624,85,672,139,720,138.7C768,139,816,85,864,74.7C912,64,960,96,1008,106.7C1056,117,1104,107,1152,85.3C1200,64,1248,32,1296,42.7C1344,53,1392,107,1416,133.3L1440,160L1440,320L1416,320C1392,320,1344,320,1296,320C1248,320,1200,320,1152,320C1104,320,1056,320,1008,320C960,320,912,320,864,320C816,320,768,320,720,320C672,320,624,320,576,320C528,320,480,320,432,320C384,320,336,320,288,320C240,320,192,320,144,320C96,320,48,320,24,320L0,320Z"></path></svg>